<svg xmlns="http://www.w3.org/2000/svg" width="100" height="100" viewBox="0 0 100 100" style="width:100%;height:auto;"><path d="M88.929 0a8 8 0 0 1 8 8v84a8 8 0 0 1-8 8h-75.07a8 8 0 0 1-8-8V26.338l.22-.226v-.228l4.714-4.606L31.539 0h57.391zm0 8H34.583l.001 21H12.929v64h76V8zM68.5 72a3.5 3.5 0 1 1 0 7h-41a3.5 3.5 0 1 1 0-7h41zm7-17a3.5 3.5 0 1 1 0 7h-48a3.5 3.5 0 1 1 0-7h48zM71 17a8 8 0 0 1 8 8v12a8 8 0 0 1-8 8H59a8 8 0 0 1-8-8V25a8 8 0 0 1 8-8h12zm1 7H59a1 1 0 0 0-1 1v13a1 1 0 0 0 1 1h13a1 1 0 0 0 1-1V25a1 1 0 0 0-1-1zm-44.435-8.689l-6.528 6.143h6.528v-6.143z" fill-rule="evenodd" style="fill:#0a2e7e"/></svg>