<svg xmlns="http://www.w3.org/2000/svg" width="100" height="100" viewBox="0 0 100 100" style="width:100%;height:auto;"><path d="M97 11a2 2 0 0 1 2 2v74a2 2 0 0 1-2 2H3a2 2 0 0 1-2-2V13a2 2 0 0 1 2-2h94zm-19 5H23v69h55V16zM18 70H6.5v13.5H18V70zm76.5 0H83v13.5h11.5V70zm0-18H83v13.5h11.5V52zM18 52H6.5v13H18V52zm26.395-15.657a3 3 0 0 1 1.562.438l17.265 10.525a3 3 0 0 1 .065 5.082L46.022 63.534a3 3 0 0 1-4.627-2.52V39.343a3 3 0 0 1 3-3zm2.06 6.579v13.786l10.466-6.893-10.466-6.893zM18 34H6.5v13H18V34zm76.5 0H83v13h11.5V34zm0-18H83v13h11.5V16zM18 16H6.5v12.5H18V16z" fill-rule="evenodd" style="fill:#0a2e7e"/></svg>