<svg style="width:100%; height:auto;" width="996" height="996" viewBox="0 0 996 996" version="1.1" xmlns="http://www.w3.org/2000/svg"><title>PetroSkills Graphic Mark</title><path d="M649.615239,35.243978 C649.615239,38.7125772 631.88618,36.2514727 630.710524,41.8545944 C630.375387,43.4512173 633.801706,47.51855 638.061049,51.7972005 L638.621038,52.3564454 L639.763501,53.4770698 L640.342763,54.0363147 L640.634,54.3159371 L641.304274,54.9530921 C645.668548,59.078057 650.139894,62.8785744 652.036148,64.282023 C653.106872,65.0749981 654.71403,65.9714976 656.709861,66.9768577 L657.4765,67.3589372 C664.666416,70.9086483 676.245233,75.7497454 686.250084,82.0657977 C699.441129,90.896553 709.846789,99.053631 717.467062,106.537032 C723.951371,114.472119 732.520381,127.49164 730.305051,135.858968 C728.29316,143.458936 722.175039,147.524134 715.9113,151.321449 L715.159651,151.776103 L714.032178,152.455948 C708.477258,155.81035 702.935187,159.728267 701.797007,161.953506 C699.861136,165.740149 703.436286,176.922913 711.373568,189.066212 C713.522513,192.353377 717.126572,196.950071 722.186817,202.858429 C734.66183,215.284553 751.523603,226.666894 766.459141,215.361395 C770.572866,212.247127 774.444606,196.306512 767.534149,184.025537 C757.232707,165.718804 737.551716,149.810207 754.338538,139.285944 C756.987511,137.625285 761.135498,136.588975 766.459141,138.364898 C774.24438,140.961544 785.436666,148.895565 798.630135,155.971507 C802.939802,158.283195 806.210866,159.817917 812.911461,160.125288 C818.176214,160.367556 818.390359,159.213847 818.241529,157.925662 L818.221185,157.764506 L818.215831,157.72395 L818.187992,157.520103 L818.158012,157.2757 L818.143022,157.111342 C818.136598,157.029163 818.133385,156.948051 818.133385,156.866939 C818.133385,153.713182 815.679284,147.893406 811.856797,141.819622 C808.146736,135.925138 801.94617,129.922861 798.630135,123.959005 C806.644509,120.654764 838.357233,150.843316 857.05744,173.82999 C867.034453,186.094957 872.471593,198.606461 870.62138,200.953368 C867.313912,205.147705 840.671069,168.232204 836.245764,183.266714 C835.088311,187.200639 842.431341,196.889237 849.453153,210.79245 C850.980007,213.814934 853.964116,217.668814 855.368907,221.074445 C863.238734,240.14427 857.909737,248.637535 851.303365,248.637535 C844.696994,248.637535 825.466779,238.60101 800.249071,226.864337 C789.973326,222.08194 784.375577,233.637178 782.158107,237.690636 C780.12373,248.365383 782.416151,261.986839 796.965158,276.738524 C831.144832,311.3957 846.342698,290.816768 847.314916,284.384384 C849.122299,272.426789 854.298182,265.000785 869.239075,268.090506 C874.065902,269.089463 887.061287,274.957265 892.138664,282.452641 C896.271661,288.553107 915.595029,311.927196 929.678271,334.787933 C934.869144,343.215028 941.764611,356.945344 946.619277,362.475892 C953.025423,369.773825 957.718409,366.909295 958.085668,366.471718 C959.111422,365.252906 958.7538,362.072467 958.364056,358.722334 L958.298742,358.163089 L958.248418,357.723378 L958.199165,357.283666 L958.128497,356.625166 L958.084597,356.188656 L958.04498,355.756415 C957.613478,350.873695 957.988232,346.780748 963.56992,349.316561 C968.734025,353.262225 988.940741,399.507724 991.353084,414.529427 C995.339392,439.352857 999.42956,457.591285 991.353084,457.591285 C982.687709,457.591285 968.696549,377.124053 946.619277,385.531938 C936.958128,389.210787 938.330797,416.980926 919.99892,414.529427 C901.667043,412.077927 877.135669,377.58511 847.315987,334.789 C841.955939,327.096181 807.839438,311.020024 802.894832,325.056644 C801.997564,327.60313 801.230925,330.180566 800.539237,332.744127 C801.452565,338.801902 802.801679,346.251386 805.642311,353.932466 C809.877027,365.384179 827.461539,389.447719 839.38727,398.043442 C856.102353,410.092821 876.042459,405.279473 885.918824,410.631788 C943.436013,441.797952 934.718172,546.397029 935.372385,553.428146 C936.861763,569.413585 953.326297,612.253453 958.881216,621.900428 C961.142587,625.826882 969.454622,628.550533 983.818394,630.07138 C986.539106,651.535072 986.539106,671.189756 983.818394,689.036499 C977.858741,728.123876 951.352951,775.353389 945.416853,767.565584 C938.720541,758.778822 938.720541,723.678733 945.416853,662.266384 C941.544042,643.316093 938.195886,630.586868 935.372385,624.076574 C929.27782,610.028213 921.235607,600.346019 917.136873,598.728051 C907.545321,594.942475 884.59862,589.017041 868.073055,576.921769 C853.66003,566.372958 845.342641,550.447285 839.3862,535.959213 C836.531648,529.015611 827.482953,475.490324 829.879235,440.102074 C830.386759,432.613102 825.325443,418.59249 814.69743,398.042374 C800.666654,383.550033 789.148868,374.103704 780.144073,369.703385 C778.320629,370.14203 776.285182,370.373626 774.008821,370.373626 C765.817777,370.373626 758.896613,377.244654 753.247469,390.985643 C752.163896,398.415916 751.971166,406.958275 753.348117,416.837913 C758.815238,456.087514 797.6622,485.391307 807.107063,498.801445 C843.774029,550.860315 835.254273,612.842581 781.549935,684.746108 C770.690645,698.618371 763.947221,708.864079 761.319663,715.485368 C752.357697,738.064348 752.577196,802.648597 753.348117,819.179407 C753.66184,825.907422 755.628761,834.901233 759.248881,846.161906 L762.050968,848.789504 C784.733199,871.05791 786.249346,898.64448 766.598335,931.549212 C735.952053,982.865269 665.339902,1013.54263 629.855015,985.166285 C596.72144,958.669389 618.758024,912.335308 695.964769,846.162974 C712.925048,789.503139 720.813077,755.347577 719.629926,743.696285 C715.459454,702.629138 707.571425,678.29985 695.964769,670.707354 C646.533693,612.888474 636.714077,561.148714 666.511275,515.490209 C677.211026,499.093874 695.967982,475.375059 719.633139,452.153588 C723.845369,448.021153 725.937565,438.936625 725.909727,424.898937 C720.234886,396.879059 713.382248,377.796428 705.349671,367.649975 C704.367817,367.241214 703.404164,366.75561 702.462997,366.193163 C697.434874,363.188823 692.325376,360.734122 687.276909,359.360556 C686.708944,359.480768 686.147214,359.628583 685.59373,359.80347 C683.077527,360.59431 682.603196,360.012653 683.703901,358.577187 C680.498151,358.042489 677.328806,358.004067 674.235483,358.601734 C634.84138,366.20597 628.392405,425.680172 629.509171,429.766716 C634.84138,449.276252 638.755949,467.406887 635.204356,487.627219 C621.417704,566.127488 566.248615,601.351379 469.698158,593.297826 C429.603801,608.316326 399.470396,626.858924 379.300085,648.926685 C365.777903,663.719994 350.279163,692.972558 332.802794,736.683311 C340.858927,810.521783 320.632938,853.575103 272.124826,865.841137 C199.36373,884.240722 120.136528,823.700325 120.136528,756.848146 C120.136528,684.899794 170.798937,653.078332 272.124826,661.381625 C315.943164,639.86457 342.403983,623.363643 351.510496,611.879912 C386.603498,567.621654 404.658057,535.491753 405.675246,515.490209 C396.641542,420.116539 426.147502,368.953101 494.193126,361.997759 C522.349974,359.120423 547.073007,360.286939 567.509929,368.611577 C570.282035,369.74074 586.610586,369.530489 612.222321,356.792726 C618.561011,353.640036 627.215679,345.37303 638.185253,331.992775 C644.791624,308.073316 638.186324,290.973655 618.368281,280.693795 C616.094061,279.513404 614.553289,277.971211 613.627112,276.141925 L612.447173,275.977567 C599.466778,274.200577 586.576323,273.261387 582.740987,272.742698 C551.42229,268.502469 533.94378,280.702333 532.159953,283.940403 C523.64555,299.403952 502.511587,317.231485 487.990418,327.774959 C445.610065,358.546236 396.647966,360.984928 351.098267,331.296921 C341.06986,324.759946 326.940577,310.580312 308.710418,288.755886 C281.501163,280.964879 254.859391,277.900772 228.786174,279.565699 C211.306593,280.680988 183.402437,287.514662 145.071564,300.066721 C98.1984498,366.504803 55.8127423,388.922627 17.9165835,367.320191 C-38.9292609,334.916004 53.1444964,213.663383 104.460048,217.717908 C129.902608,219.728629 143.43978,227.185583 145.071564,240.087705 C181.386263,246.758088 205.890868,249.240537 218.586451,247.533987 C267.515357,240.95859 303.79258,227.917724 327.420261,208.412457 C385.886112,159.655693 441.475997,155.507248 494.192056,195.967123 C499.815502,200.283128 504.965688,205.143436 510.015225,210.058174 L511.225144,211.238565 L512.432922,212.418956 L513.638557,213.59828 C524.891874,224.599609 536.089513,235.273289 551.420149,240.086637 C557.314488,241.937269 570.295954,242.761194 590.363476,242.558415 C610.616234,240.110117 624.175891,235.422706 631.041378,228.497247 C629.643012,226.550563 629.174034,224.582533 629.867864,222.676404 C631.977191,216.881175 591.326058,184.466316 584.338509,179.893101 C566.304293,168.091326 567.016325,167.313292 559.479494,167.313292 C551.942662,167.313292 511.098799,175.592038 445.253513,151.114401 C435.982108,147.668214 421.458798,138.549534 413.330927,122.040069 C410.208694,115.698402 408.117569,103.273347 407.056481,84.7649015 C396.47665,75.470123 388.000793,68.8819191 381.628911,64.9992225 C375.257028,61.116526 366.745838,57.3576318 356.098551,53.7204053 C347.779021,51.5730756 339.851375,50.9540641 332.314544,51.8612362 C282.108263,57.9051368 257.686104,67.6428287 232.365607,51.8612362 C211.414737,38.8032944 332.038297,0.699932154 366.432115,12.5198508 C368.361561,16.5263497 369.326284,23.7858609 369.326284,34.2983845 C377.90493,42.6955963 388.73424,47.9977503 401.813142,50.2048467 C414.892044,52.411943 434.424204,54.30313 460.40748,55.8784076 C490.670442,57.5646805 518.685954,62.9788969 544.455085,72.1210571 C563.22703,78.7807675 574.419315,87.847152 587.582804,107.002358 C596.773905,120.376209 591.327129,125.637807 591.327129,140.190982 C591.327129,147.47504 599.141277,158.793346 614.769575,174.148034 C644.841948,195.447367 664.939451,202.739963 675.063153,196.023688 L674.759067,195.867868 C673.966731,195.465511 674.868281,195.51247 676.304123,195.084498 C677.005076,194.485766 677.642632,193.817014 678.2068,193.08872 C678.653293,192.5156 679.429568,192.279736 680.461747,192.3363 C683.045405,189.019252 684.261749,181.941176 678.2068,166.393313 C673.551289,154.43892 657.395125,137.868621 632.71385,123.033689 C629.420301,121.05392 587.581734,107.002358 583.798863,70.6311603 C582.640339,59.4953561 593.726623,55.0651545 617.057714,57.3405556 C613.556444,48.9903033 609.218938,42.9229229 604.043055,39.1362799 C577.86919,19.9864108 560.261123,14.3822218 537.354039,5.49300257 C534.559447,-10.9598973 625.437205,12.6682002 649.615239,35.2450453 L649.615239,35.243978 Z" id="globe" fill="#042373"></path><path d="M533.69216,659.4232 C596.624004,659.4232 647.640823,710.274998 647.640823,773.00328 C647.640823,835.731562 596.624004,886.58336 533.69216,886.58336 C470.760317,886.58336 419.743498,835.731562 419.743498,773.00328 C419.743498,710.274998 470.760317,659.4232 533.69216,659.4232 Z M895.979353,652.958798 C960.205703,682.058745 895.979353,834.940721 835.168615,823.866818 C774.357877,812.792915 820.530738,618.77442 895.979353,652.958798 L895.979353,652.958798 Z M225.245287,352.95272 C288.177131,352.95272 339.19395,403.804518 339.19395,466.5328 C339.19395,529.261081 288.177131,580.11288 225.245287,580.11288 C162.313444,580.11288 111.296625,529.261081 111.296625,466.5328 C111.296625,403.804518 162.313444,352.95272 225.245287,352.95272 L225.245287,352.95272 Z M979.924168,579.71159 C944.694114,588.511159 939.955087,444.938902 960.487303,439.635681 C993.97743,430.984461 1000.26901,574.630359 979.924168,579.71159 Z M937.674443,325.181514 C921.821293,332.020524 858.788802,232.338321 873.395628,220.820437 C888.002454,209.302553 953.528663,318.342504 937.674443,325.181514 Z M351.119682,110.018438 C361.906162,145.18363 316.342544,175.20569 281.063236,185.956213 C245.783928,196.706735 189.393142,200.407998 178.607732,165.242806 C167.822323,130.077614 222.563122,97.7780183 257.84243,87.0264281 C293.121738,76.274838 340.334272,74.8521787 351.119682,110.017371 L351.119682,110.018438 Z M566.768987,43.0200437 C571.703957,59.1090075 520.284546,58.3950097 478.680467,50.5154197 C447.844667,44.675366 424.511435,33.9419193 422.435299,28.2235333 C419.854853,21.1155732 436.720908,13.5102693 448.92824,9.79086374 C484.207548,-0.960726399 555.983577,7.85485178 566.768987,43.0200437 Z M773.107224,135.301541 C759.736601,135.301541 740.077356,122.648555 721.979115,109.755799 C696.506723,91.6098722 674.391466,70.0498789 678.63509,66.6737555 C686.90721,60.0926602 716.999579,76.2343043 745.613615,94.0460289 C775.074581,112.384952 800.117221,135.301541 773.107224,135.301541 Z" id="dots" style="fill:#004E8C"></path></svg>