<?xml version="1.0" encoding="UTF-8"?>
<svg width="300px" height="200px" viewBox="0 0 300 200" version="1.1" xmlns="http://www.w3.org/2000/svg" xmlns:xlink="http://www.w3.org/1999/xlink">
    <title>apple</title>
    <g id="apple" stroke="none" stroke-width="1" fill="none" fill-rule="evenodd">
        <path d="M181.834505,86.50592 C176.284112,89.9925377 172.869271,96.1608701 172.793,102.83787 C172.815068,110.394502 177.222853,117.211007 184,120.169154 C182.692746,124.496706 180.758071,128.597711 178.260993,132.334346 C174.688005,137.611774 170.951989,142.888664 165.267499,142.888664 C159.58301,142.888664 158.120999,139.500181 151.569997,139.500181 C145.181499,139.500181 142.907493,143 137.709991,143 C132.512488,143 128.885507,138.111441 124.716497,132.112212 C119.209548,123.707919 116.182999,113.851777 116,103.726406 C116,87.0615237 126.557508,78.2294157 136.951989,78.2294157 C142.474499,78.2294157 147.076503,81.9508307 150.541505,81.9508307 C153.844002,81.9508307 158.987512,78.006744 165.267499,78.006744 C171.824517,77.833162 178.035636,81.0195791 181.834505,86.50592 L181.834505,86.50592 Z M162.574486,70.8163621 C165.333925,67.4371283 166.895982,63.1745402 166.999722,58.740644 C167.004394,58.1561269 166.950103,57.5727144 166.837741,57 C162.097723,57.4820149 157.71453,59.8338491 154.587218,63.573107 C151.801171,66.8176883 150.180277,70.9664364 150,75.314295 C150.002092,75.8430557 150.056371,76.3701931 150.161982,76.8874021 C150.535662,76.9609354 150.915035,76.998626 151.295331,77 C155.71002,76.634309 159.787236,74.3990328 162.574486,70.8163621 L162.574486,70.8163621 Z" id="Shape" fill="#233343" fill-rule="nonzero"></path>
    </g>
</svg>