<?xml version="1.0" encoding="UTF-8"?>
<svg width="300px" height="200px" viewBox="0 0 300 200" version="1.1" xmlns="http://www.w3.org/2000/svg" xmlns:xlink="http://www.w3.org/1999/xlink">
    <title>node</title>
    <g id="node" stroke="none" stroke-width="1" fill="none" fill-rule="evenodd">
        <g id="nodejs" transform="translate(24, 64)" fill-rule="nonzero">
            <g id="Group" transform="translate(213, 25)" fill="#83CD29">
                <path d="M19.4997618,0 C18.907229,0 18.3308907,0.125280113 17.8207599,0.420687695 L1.67947825,9.96050019 C0.634924706,10.5766639 0,11.7397703 0,12.9774598 L0,32.0224743 C0,33.2591889 0.634924706,34.4208329 1.67947825,35.038459 L5.89484483,37.5289496 C7.94298904,38.5619012 8.69794453,38.5458147 9.6300883,38.5458147 C12.6622944,38.5458147 14.3936907,36.6627132 14.3936907,33.3903187 L14.3936907,14.5905022 C14.3936907,14.3248304 14.1688711,14.1347166 13.9140439,14.1347166 L11.8920969,14.1347166 C11.6329828,14.1347166 11.4124501,14.3248304 11.4124501,14.5905022 L11.4124501,33.3903187 C11.4124501,34.8405457 9.935881,36.2995471 7.54002858,35.0735569 L3.15318946,32.443162 C2.99791155,32.3568796 2.8788334,32.2043011 2.8788334,32.0224743 L2.8788334,12.9769723 C2.8788334,12.796608 2.99648261,12.6128313 3.15318946,12.5211867 L19.2601766,3.01695961 C19.408339,2.92835658 19.591661,2.92835658 19.7398234,3.01695961 L35.8472869,12.5216742 C36.0006595,12.6162436 36.1216429,12.7912458 36.1216429,12.9779473 L36.1216429,32.0229618 C36.1216429,32.2047886 36.0320961,32.3910026 35.8815814,32.4787474 L19.7398234,41.983462 C19.6016927,42.0677945 19.4111677,42.0677945 19.2601766,41.983462 L15.113399,39.4583609 C14.9852022,39.3871952 14.8305381,39.3871952 14.7023413,39.4583609 C13.5577621,40.1222967 13.3424688,40.1993172 12.2688601,40.5805197 C12.0045067,40.6750891 11.6029751,40.821818 12.4060382,41.2824783 L17.8207599,44.543661 C18.3312966,44.8451085 18.9108325,45.0025542 19.5002382,45 C20.0895735,45.003695 20.6692024,44.8463476 21.1792401,44.5441485 L37.3209981,35.0389465 C38.3655516,34.4174206 39,33.2596764 39,32.0229618 L39,12.9774598 C39,11.7402577 38.3655516,10.5791012 37.3209981,9.96147513 L21.1792401,0.421662637 C20.6733961,0.125767584 20.0932474,0.000487471257 19.5002382,0.000487471257 L19.4997618,0 Z" id="Path"></path>
                <path d="M23.8180119,13.6087351 C19.2215953,13.6087351 16.4842267,15.6107795 16.4842267,18.9402082 C16.4842267,22.5513953 19.2011138,23.5438868 23.6127212,23.9904104 C28.8902649,24.5193167 29.3013227,25.3124325 29.3013227,26.3756073 C29.3013227,28.2197111 27.8647639,29.0060022 24.4696076,29.0060022 C20.2032756,29.0060022 19.2658924,27.9160165 18.9520023,25.744332 C18.91485,25.5113208 18.7390906,25.3231568 18.5061737,25.3231568 L16.4156377,25.3231568 C16.1584289,25.3231568 15.9359909,25.5503185 15.9359909,25.8145279 C15.9359909,28.5945765 17.4135126,31.8820826 24.4696076,31.8820826 C29.5771077,31.8820826 32.5231012,29.8303161 32.5231012,26.2352156 C32.5231012,22.6718007 30.1434434,21.7148946 25.1888396,21.0446216 C20.1827941,20.3665491 19.7055289,20.0345812 19.7055289,18.8349144 C19.7055289,17.8443728 20.1103946,16.519426 23.8180119,16.519426 C27.1302898,16.519426 28.3544132,17.2506328 28.8559704,19.5363856 C28.8997912,19.7508729 29.0846004,19.9219753 29.3013227,19.9219753 L31.392335,19.9219753 C31.5209394,19.9219753 31.6457333,19.8410551 31.7348038,19.7464857 C31.8224453,19.6455791 31.884366,19.5319983 31.8719818,19.3959938 C31.5480893,15.4601509 28.9836222,13.6087351 23.8180119,13.6087351 L23.8180119,13.6087351 Z" id="Path"></path>
            </g>
            <path d="M133.250067,0.000191048645 C133.06378,0.000191048645 132.880737,0.0491988403 132.718963,0.14159527 C132.391916,0.333017818 132.190186,0.682918344 132.188351,1.06194282 L132.188351,28.1371807 C132.188351,28.4028074 132.064919,28.6408877 131.834774,28.774193 C131.605147,28.9079872 131.321346,28.9079872 131.09172,28.774193 L126.668804,26.2261436 C126.012155,25.8460984 125.202513,25.8460984 124.545864,26.2261436 L106.890099,36.4188329 C106.230153,36.8000565 105.828875,37.5324977 105.828875,38.2949449 L105.828875,58.6808154 C105.828875,59.4422788 106.230645,60.139795 106.890099,60.5210186 L124.545864,70.7141998 C125.202238,71.0952667 126.012429,71.0952667 126.668804,70.7141998 L144.324568,60.5210186 C144.982534,60.1422109 145.387567,59.4401946 145.386288,58.6808154 L145.386288,7.85756091 C145.385308,7.08024523 144.966382,6.36354904 144.289653,5.9814489 L133.780679,0.106178367 C133.615939,0.0141928023 133.433003,-0.00203994448 133.250067,0.000191048645 L133.250067,0.000191048645 Z M19.6725019,25.4474637 C19.3361361,25.460745 19.0194407,25.5197732 18.7174983,25.6948901 L1.06124219,35.8880713 C0.402866551,36.2664046 -0.0021846584,36.9687787 8.86415705e-06,37.7282745 L0.0354247312,65.0873395 C0.0354247312,65.4675792 0.231638139,65.8212564 0.566036928,66.0071951 C0.892725004,66.2035395 1.30106501,66.2035395 1.62775309,66.0071951 L12.1008281,59.9907489 C12.7642163,59.5962439 13.1974594,58.9105334 13.1974594,58.1500538 L13.1974594,45.3734063 C13.1974594,44.6109591 13.5982462,43.9114753 14.2591756,43.5327112 L18.7170065,40.949245 C19.0393204,40.7617846 19.4058902,40.6639599 19.7787227,40.6659098 C20.1426273,40.6659098 20.5163671,40.7569115 20.8399471,40.949245 L25.2982698,43.5327112 C25.9572884,43.9107046 26.3626756,44.6135235 26.3599859,45.3734063 L26.3599859,58.1495619 C26.3599859,58.9100414 26.7976549,59.600671 27.4566172,59.990257 L37.9296923,66.0071951 C38.2563804,66.2035395 38.6647204,66.2035395 38.9914084,66.0071951 C39.3198188,65.8170662 39.5221752,65.4664039 39.5225124,65.0868476 L39.5569692,37.7282745 C39.5612034,36.9682303 39.1555956,36.2648909 38.4957114,35.8880713 L20.8399471,25.6948901 C20.541447,25.5197732 20.2237681,25.4612369 19.8849435,25.4474637 L19.6725019,25.4474637 Z M178.327024,25.6948901 C177.958202,25.6948901 177.596756,25.7883514 177.2658,25.9782253 L159.610035,36.1714065 C158.95192,36.5500645 158.546833,37.2521759 158.548315,38.0116097 L158.548315,58.3974802 C158.548315,59.1643545 158.980087,59.8589193 159.644951,60.2381753 L177.159579,70.218855 C177.806247,70.5877811 178.596018,70.6158195 179.247113,70.2532881 L189.861815,64.3430926 C190.198673,64.1561701 190.426359,63.8069201 190.427834,63.423237 C190.431525,63.0427401 190.228311,62.6902652 189.897222,62.5028894 L172.135237,52.3097082 C171.802805,52.1198343 171.569218,51.7356593 171.569218,51.3539438 L171.569218,44.9838204 C171.569218,44.6025968 171.805264,44.2533468 172.135237,44.0634729 L177.654784,40.8779193 C177.983171,40.6878018 178.388113,40.6878018 178.7165,40.8779193 L184.235556,44.0634729 C184.564707,44.2526204 184.767367,44.6036212 184.76666,44.9833285 L184.76666,50.0090853 C184.765647,50.3887454 184.968161,50.7398179 185.297272,50.9289409 C185.628228,51.1202906 186.028523,51.1207825 186.358496,50.9289409 L196.938284,44.7718109 C197.595137,44.3916503 198,43.6902084 198,42.9311158 L198,38.0121016 C198,37.2521139 197.596754,36.553122 196.938284,36.1714065 L179.38874,25.9782253 C179.066122,25.7915561 178.699726,25.6939476 178.327024,25.695382 L178.327024,25.6948901 Z M125.536274,40.9138281 C125.628725,40.9138281 125.736913,40.9364555 125.819529,40.98417 L131.870181,44.4879838 C132.034429,44.5829208 132.153436,44.7585296 132.153436,44.9479116 L132.153436,51.9555392 C132.153436,52.1459051 132.035413,52.321022 131.870181,52.4159589 L125.819529,55.9197727 C125.655117,56.0136804 125.45333,56.0136804 125.288917,55.9197727 L119.238758,52.4159589 C119.074017,52.3205301 118.955503,52.1459051 118.955503,51.9555392 L118.955503,44.9479116 C118.955503,44.7580377 119.074509,44.5839046 119.238758,44.4879838 L125.288917,40.9846619 C125.363288,40.9383922 125.449184,40.9140139 125.536766,40.91432 L125.536766,40.9138281 L125.536274,40.9138281 Z" id="Shape" fill="#404137"></path>
            <path d="M73.7563762,25.0000056 C73.3889528,25.0000056 73.025459,25.0934268 72.6963498,25.2832079 L55.0605176,35.4360048 C54.4008255,35.8160587 54,36.5496167 54,37.3107077 L54,57.6866091 C54,58.4486834 54.4013167,59.1448752 55.0605176,59.526404 L72.6963498,69.7141089 C73.3519008,70.095297 74.1613428,70.095297 74.8168937,69.7141089 L92.452726,59.526404 C93.1099126,59.1475688 93.5143105,58.4456909 93.5127568,57.6866091 L93.5127568,37.3107077 C93.5127568,36.5486334 93.1119268,35.8160587 92.452726,35.4360048 L74.8168937,25.2832079 C74.4945244,25.0968516 74.1286475,24.9991492 73.7563762,25.0000056 L73.7563762,25.0000056 Z M179.218191,43.1831051 C179.147949,43.1831051 179.069847,43.1831051 179.006481,43.2185047 L175.613709,45.1994063 C175.484901,45.2710177 175.40402,45.4059442 175.401507,45.5534022 L175.401507,49.4444063 C175.401507,49.5909212 175.485995,49.7251446 175.613709,49.7984021 L179.006481,51.7439042 C179.133704,51.8176533 179.269277,51.8176533 179.395026,51.7439042 L182.787798,49.7979104 C182.916023,49.7259398 182.996716,49.591515 183,49.4444063 L183,45.5529105 C182.996716,45.4058018 182.916023,45.271377 182.787798,45.1994063 L179.395026,43.218013 C179.332152,43.1811385 179.288925,43.1835968 179.218191,43.1835968 L179.218191,43.1831051 Z" id="Shape" fill="#83CD29"></path>
        </g>
    </g>
</svg>