<svg xmlns="http://www.w3.org/2000/svg" width="200" height="74" viewBox="0 0 200 74" style="width:100%; height:auto;"><defs><radialGradient cx="70%" cy="40.118%" fx="70%" fy="40.118%" r="56.826%" id="A"><stop stop-color="#00d6b5" offset="0%"/><stop stop-color="#066da3" offset="100%"/></radialGradient></defs><g fill-rule="evenodd"><g fill="#d8f9ff"><path d="M85.409 25V14.166h-4.182v-2.914h11.964v2.914h-4.182V25h-3.599zm9.099 0V10.648h3.471v6.175h-.298c.324-.627.785-1.11 1.384-1.447s1.281-.506 2.045-.506c1.162 0 2.029.345 2.601 1.035s.858 1.741.858 3.155V25h-3.471v-5.798c0-.593-.107-1.02-.32-1.281s-.539-.392-.977-.392c-.55 0-.991.175-1.323.524s-.498.812-.498 1.388V25h-3.471zm17.376.22c-1.792 0-3.185-.463-4.179-1.39s-1.491-2.191-1.491-3.794c0-1.011.208-1.903.623-2.679a4.58 4.58 0 0 1 1.755-1.825c.755-.441 1.638-.662 2.65-.662s1.846.218 2.516.654 1.173 1.037 1.509 1.802.503 1.648.503 2.648v.731h-6.653V19.07h4.096l-.332.273c0-.736-.14-1.284-.42-1.645s-.676-.541-1.188-.541c-.582 0-1.024.218-1.327.653s-.454 1.091-.454 1.969v.353c0 .867.213 1.501.64 1.903s1.047.603 1.859.603c.518 0 1.006-.058 1.464-.174a4.54 4.54 0 0 0 1.313-.569l.908 2.273c-.501.336-1.075.595-1.72.778a7.57 7.57 0 0 1-2.073.275zM89.178 44.37c-1.496 0-2.788-.293-3.875-.88s-1.926-1.412-2.518-2.476-.887-2.313-.887-3.748.296-2.681.887-3.738 1.431-1.879 2.518-2.466 2.379-.88 3.875-.88c.945 0 1.809.126 2.591.378s1.44.616 1.974 1.091l-1.081 2.823c-.594-.428-1.143-.728-1.646-.901s-1.073-.259-1.71-.259c-1.175 0-2.076.34-2.703 1.021s-.94 1.658-.94 2.931c0 1.281.313 2.264.94 2.947s1.527 1.025 2.703 1.025c.637 0 1.207-.086 1.71-.259s1.052-.476 1.646-.908l1.081 2.823c-.534.47-1.192.834-1.974 1.091s-1.645.385-2.591.385zm11.199 0c-1.096 0-2.048-.21-2.856-.63a4.51 4.51 0 0 1-1.875-1.791c-.443-.774-.664-1.694-.664-2.761s.221-1.985.664-2.754 1.068-1.363 1.874-1.783 1.759-.63 2.857-.63 2.049.21 2.855.63a4.52 4.52 0 0 1 1.872 1.787c.443.771.664 1.688.664 2.751s-.221 1.983-.664 2.758-1.067 1.373-1.873 1.793-1.758.63-2.854.63zm.001-2.582c.572 0 1.029-.205 1.37-.616s.511-1.071.511-1.98-.171-1.568-.512-1.977-.798-.613-1.369-.613c-.584 0-1.045.204-1.384.613s-.508 1.067-.508 1.977.169 1.569.508 1.98.8.616 1.385.616zm7.086 2.362v-7.216l-.039-1.347-.117-1.347h3.343l.207 1.713h-.222a3.38 3.38 0 0 1 1.27-1.411c.557-.348 1.213-.522 1.968-.522.73 0 1.352.173 1.866.518s.887.888 1.12 1.626h-.324c.314-.669.782-1.193 1.401-1.574a3.89 3.89 0 0 1 2.077-.571c1.138 0 1.984.342 2.539 1.025s.831 1.751.831 3.204v5.901h-3.483v-5.791c0-.606-.093-1.037-.278-1.295s-.477-.386-.874-.386c-.502 0-.894.181-1.176.544s-.423.864-.423 1.503v5.424h-3.471v-5.791c0-.606-.093-1.037-.278-1.295s-.477-.386-.874-.386c-.502 0-.892.181-1.172.544s-.42.864-.42 1.503v5.424h-3.471zm18.016 4.212V36.934l-.039-1.347-.117-1.347h3.343l.227 1.768h-.202c.187-.598.591-1.079 1.213-1.442s1.316-.546 2.082-.546c.863 0 1.619.207 2.269.62s1.159 1.007 1.527 1.78.552 1.697.552 2.771-.184 1.999-.552 2.774-.877 1.37-1.527 1.783-1.406.62-2.269.62c-.753 0-1.435-.175-2.046-.524s-1.017-.808-1.217-1.376h.227v5.891h-3.471zm5.389-6.574c.597 0 1.076-.205 1.436-.616s.54-1.071.54-1.98-.18-1.568-.54-1.977-.839-.613-1.436-.613c-.584 0-1.059.204-1.423.613s-.546 1.067-.546 1.977.182 1.569.546 1.98.839.616 1.423.616zm12.381 2.582c-1.792 0-3.185-.463-4.179-1.39s-1.491-2.191-1.491-3.794c0-1.011.208-1.903.623-2.679a4.58 4.58 0 0 1 1.755-1.825c.755-.441 1.638-.662 2.65-.662s1.846.218 2.516.654 1.173 1.037 1.509 1.802.503 1.648.503 2.648v.731h-6.653V38.22h4.096l-.332.273c0-.736-.14-1.284-.42-1.645s-.676-.541-1.188-.541c-.582 0-1.024.218-1.327.653s-.454 1.091-.454 1.969v.353c0 .867.213 1.501.64 1.903s1.047.603 1.859.603c.518 0 1.006-.058 1.464-.174a4.54 4.54 0 0 0 1.313-.569l.908 2.273c-.501.336-1.075.595-1.72.778a7.57 7.57 0 0 1-2.073.275zm10.625 0c-1.411 0-2.469-.337-3.175-1.01s-1.059-1.691-1.059-3.055v-3.51h-1.854V34.24h1.854v-2.341l3.471-.823v3.164h2.421v2.555h-2.421v3.379c0 .568.128.947.384 1.137s.566.285.929.285c.231 0 .425-.015.584-.046s.331-.079.517-.144v2.665c-.279.116-.56.195-.843.236a5.6 5.6 0 0 1-.808.062zm8.223 0c-1.792 0-3.185-.463-4.179-1.39s-1.491-2.191-1.491-3.794c0-1.011.208-1.903.623-2.679a4.58 4.58 0 0 1 1.755-1.825c.755-.441 1.638-.662 2.65-.662s1.846.218 2.516.654 1.173 1.037 1.509 1.802.503 1.648.503 2.648v.731h-6.653V38.22h4.096l-.332.273c0-.736-.14-1.284-.42-1.645s-.676-.541-1.188-.541c-.582 0-1.024.218-1.327.653s-.454 1.091-.454 1.969v.353c0 .867.213 1.501.64 1.903s1.047.603 1.859.603c.518 0 1.006-.058 1.464-.174a4.54 4.54 0 0 0 1.313-.569l.908 2.273c-.501.336-1.075.595-1.72.778a7.57 7.57 0 0 1-2.073.275zm5.554-.22v-7.216l-.039-1.347-.117-1.347h3.343l.207 1.713h-.222c.329-.614.79-1.09 1.385-1.427s1.27-.506 2.026-.506c1.165 0 2.036.344 2.613 1.031s.865 1.753.865 3.198v5.901h-3.471v-5.759c0-.627-.111-1.069-.334-1.326s-.54-.386-.951-.386c-.555 0-.999.178-1.333.534s-.501.828-.501 1.418v5.52h-3.471zm17.166.22c-1.089 0-2.044-.208-2.867-.624a4.53 4.53 0 0 1-1.914-1.79c-.453-.778-.68-1.704-.68-2.778 0-1.083.228-2.007.684-2.774s1.094-1.355 1.914-1.767 1.775-.617 2.863-.617c.675 0 1.338.092 1.989.277s1.175.445 1.574.781l-.965 2.369c-.309-.259-.665-.457-1.067-.594s-.791-.206-1.165-.206c-.713 0-1.268.215-1.664.645s-.594 1.061-.594 1.893.198 1.466.594 1.9.951.652 1.664.652c.362 0 .746-.07 1.152-.209s.767-.334 1.081-.584l.965 2.362c-.411.336-.94.597-1.587.784s-1.305.281-1.975.281zm5.047 4.207l-.814-2.69c.619-.113 1.141-.238 1.565-.374s.773-.321 1.046-.557.488-.543.645-.922l.488-1.126-.083 1.292-4.315-9.959h3.652l2.546 6.575h-.653l2.627-6.575h3.428l-4.448 10.132c-.349.793-.721 1.444-1.118 1.951s-.826.909-1.287 1.205a5.54 5.54 0 0 1-1.5.672 14.95 14.95 0 0 1-1.779.377zM80.577 63.3l6.419-13.747h2.94L96.41 63.3h-3.613l-1.652-3.774 1.375.994h-8.074l1.377-.994L84.17 63.3h-3.593zm7.876-10.035l-2.276 5.43-.557-.916h5.718l-.484.916-2.31-5.43h-.09zm8.61 10.035V48.948h3.471V63.3h-3.471zm5.612 0V48.948h3.471V63.3h-3.471zm5.612 0v-9.91h3.471v9.91h-3.471zm-.087-11.301v-3.126h3.644v3.126h-3.644zm9.601 11.521c-.85 0-1.602-.207-2.256-.62s-1.165-1.008-1.533-1.783-.552-1.7-.552-2.774.184-1.998.552-2.771.879-1.366 1.533-1.78 1.406-.62 2.256-.62c.766 0 1.459.182 2.082.546s1.029.845 1.22 1.442h-.202l.227-1.768h3.336l-.113 1.347-.043 1.347V63.3h-3.439l-.032-1.679h.234c-.2.568-.608 1.027-1.224 1.376s-1.298.524-2.046.524zm1.118-2.582c.584 0 1.059-.205 1.423-.616s.546-1.071.546-1.98-.182-1.568-.546-1.977-.838-.613-1.423-.613-1.059.204-1.423.613-.546 1.067-.546 1.977.179 1.569.537 1.98.835.616 1.433.616zm7.543 2.362v-7.216l-.039-1.347-.117-1.347h3.343l.207 1.713h-.222c.329-.614.79-1.09 1.385-1.427s1.27-.506 2.026-.506c1.165 0 2.036.344 2.613 1.031s.865 1.753.865 3.198V63.3h-3.471v-5.759c0-.627-.111-1.069-.334-1.326s-.54-.386-.951-.386c-.555 0-.999.178-1.333.534s-.501.828-.501 1.418v5.52h-3.471zm17.166.22c-1.089 0-2.044-.208-2.867-.624a4.53 4.53 0 0 1-1.914-1.79c-.453-.778-.68-1.704-.68-2.778 0-1.083.228-2.007.684-2.774s1.094-1.355 1.914-1.767 1.775-.617 2.863-.617c.675 0 1.338.092 1.989.277s1.175.445 1.574.781l-.965 2.369c-.309-.259-.665-.457-1.067-.594s-.791-.206-1.165-.206c-.713 0-1.268.215-1.664.645s-.594 1.061-.594 1.893.198 1.466.594 1.9.951.652 1.664.652c.362 0 .746-.07 1.152-.209s.767-.334 1.081-.584l.965 2.362c-.411.336-.94.597-1.587.784s-1.305.281-1.975.281zm10.237 0c-1.792 0-3.185-.463-4.179-1.39s-1.491-2.191-1.491-3.794c0-1.011.208-1.903.623-2.679a4.58 4.58 0 0 1 1.755-1.825c.755-.441 1.638-.662 2.65-.662s1.846.218 2.516.654 1.173 1.037 1.509 1.802.503 1.648.503 2.648v.731h-6.653V57.37h4.096l-.332.273c0-.736-.14-1.284-.42-1.645s-.676-.541-1.188-.541c-.582 0-1.024.218-1.327.653s-.454 1.091-.454 1.969v.353c0 .867.213 1.501.64 1.903s1.047.603 1.859.603c.518 0 1.006-.058 1.464-.174a4.54 4.54 0 0 0 1.313-.569l.908 2.273c-.501.336-1.075.595-1.72.778a7.57 7.57 0 0 1-2.073.275z" fill-rule="nonzero"/><rect x="71" width="1" height="74" rx=".5"/></g><path d="M39.786 8.159c0 .212-1.086.062-1.158.405-.021.098.189.347.45.609l.034.034.07.069.035.034.018.017.041.039.657.571c.066.049.164.103.286.165l.047.023 1.024.489c.633-.186 2.305.72 3.901 1.712 1.469.914 2.756 2.016 2.231 2.368l1.489.858c.264.142.464.236.875.254.322.015.336-.056.326-.135l-.001-.01-.002-.015-.002-.015-.001-.01c-.001-.208-.151-.565-.385-.937-.227-.361-.607-.729-.81-1.094.491-.202 2.433 1.647 3.578 3.054.611.751.944 1.517.831 1.661-.203.257-1.834-2.004-2.105-1.083-.071.241.379.834.809 1.686.094.185.276.421.362.63.482 1.168.156 1.688-.249 1.688s-1.582-.615-3.127-1.333c-.629-.293-.972.415-1.108.663-.125.654.016 1.488.907 2.391 2.093 2.123 3.024.862 3.084.468.111-.732.428-1.187 1.343-.998.08.016.196.055.329.111-.645-1.204-1.027-2.304-.679-2.577.877-.691 4.806 5.835 3.877 6.275l.175.277 1.038 1.696c.392.447.68.272.702.245.052-.062.046-.208.028-.373l-.015-.135-.006-.054-.004-.04-.003-.027-.002-.026c-.026-.299-.003-.55.338-.394.316.242 1.554 3.074 1.702 3.994l.063.387.061.366c.185 1.122.285 1.884-.124 1.884-.531 0-1.388-4.928-2.74-4.413-.592.225-.508 1.926-1.63 1.776s-2.625-2.263-4.451-4.884c-.328-.471-2.418-1.456-2.721-.596l-.144.471c.056.371.139.827.313 1.298.259.701 1.336 2.175 2.067 2.702 1.024.738 2.245.443 2.85.771 3.523 1.909 2.989 8.315 3.029 8.746.091.979 1.1 3.603 1.44 4.194.138.24.648.407 1.527.5.167 1.315.167 2.518 0 3.611-.365 2.394-1.988 5.286-2.352 4.81-.41-.538-.41-2.688 0-6.449-.237-1.161-.442-1.94-.615-2.339-.373-.86-.866-1.453-1.117-1.552-.587-.232-1.993-.595-3.005-1.336-.883-.646-1.392-1.621-1.757-2.509-.175-.425-.729-3.703-.582-5.871.031-.459-.279-1.317-.93-2.576-.859-.888-1.565-1.466-2.116-1.736-.112.027-.236.041-.376.041-.502 0-.926.421-1.272 1.262-.066.455-.078.978.006 1.583.335 2.404 2.714 4.199 3.292 5.02 2.246 3.188 1.724 6.984-1.565 11.388-.665.85-1.078 1.477-1.239 1.883-.549 1.383-.535 5.338-.488 6.351.019.412.14.963.361 1.653l.172.161c1.389 1.364 1.482 3.053.279 5.069-1.877 3.143-6.202 5.022-8.375 3.284-2.029-1.623-.68-4.461 4.049-8.513 1.039-3.47 1.522-5.562 1.449-6.276-.255-2.515-.739-4.005-1.449-4.47-3.027-3.541-3.629-6.71-1.804-9.506.655-1.004 1.804-2.457 3.253-3.879.258-.253.386-.809.384-1.669-.348-1.716-.767-2.885-1.259-3.506-.06-.025-.119-.055-.177-.089-.308-.184-.621-.334-.93-.418-.035.007-.069.016-.103.027-.154.048-.183.013-.116-.075a1.63 1.63 0 0 0-.58.002c-2.413.466-2.808 4.108-2.739 4.358.327 1.195.566 2.305.349 3.544-.844 4.808-4.223 6.965-10.136 6.472-2.456.92-4.301 2.055-5.536 3.407-.828.906-1.777 2.698-2.848 5.375.493 4.522-.745 7.159-3.716 7.91-4.456 1.127-9.309-2.581-9.309-6.675 0-4.406 3.103-6.355 9.309-5.847 2.684-1.318 4.304-2.328 4.862-3.032 2.149-2.711 3.255-4.678 3.317-5.903-.553-5.841 1.254-8.975 5.421-9.401 1.724-.176 3.239-.105 4.49.405.17.069 1.17.056 2.738-.724.388-.193.918-.699 1.59-1.519.405-1.465 0-2.512-1.214-3.142-.139-.072-.234-.167-.29-.279l-.072-.01c-.795-.109-1.584-.166-1.819-.198-1.918-.26-2.989.487-3.098.686-.521.947-1.816 2.039-2.705 2.685-2.596 1.885-5.594 2.034-8.384.216-.614-.4-1.48-1.269-2.596-2.605-1.666-.477-3.298-.665-4.895-.563-1.071.068-2.78.487-5.127 1.256-2.871 4.069-5.467 5.442-7.788 4.119-3.482-1.985 2.158-9.411 5.3-9.162 1.558.123 2.387.58 2.487 1.37 2.224.409 3.725.561 4.502.456 2.997-.403 5.218-1.201 6.666-2.396 3.581-2.986 6.985-3.24 10.214-.762.344.264.66.562.969.863l.222.217c.689.674 1.375 1.327 2.314 1.622.361.113 1.156.164 2.385.151 1.24-.15 2.071-.437 2.491-.861-.086-.119-.114-.24-.072-.356.129-.355-2.36-2.34-2.788-2.62-1.105-.723-1.061-.77-1.522-.77s-2.963.507-6.996-.992c-.568-.211-1.457-.77-1.955-1.781-.191-.388-.319-1.149-.384-2.283-.648-.569-1.167-.973-1.557-1.211s-.912-.468-1.564-.691c-.51-.132-.995-.169-1.457-.114-3.075.37-4.571.967-6.121 0-1.283-.8 6.104-3.133 8.211-2.409.118.245.177.69.177 1.334.525.514 1.189.839 1.99.974.738.124 1.81.233 3.218.324-1.186-.346-2-.774-2.094-1.032-.155-.428.86-.885 1.595-1.109 2.124-.647 6.446-.116 7.095 1.999.181.588-.893.803-2.325.775.425.112.84.241 1.246.385 1.15.408 1.835.963 2.641 2.136.563.819.229 1.141.229 2.033 0 .446.479 1.139 1.436 2.08 1.842 1.304 3.073 1.751 3.693 1.34l-.019-.01c-.049-.025.007-.022.095-.048.043-.037.082-.078.117-.122.027-.035.075-.05.138-.046.158-.203.233-.637-.138-1.589-.285-.732-1.275-1.747-2.786-2.656-.202-.121-2.764-.982-2.996-3.209-.071-.682.608-.953 2.037-.814-.214-.511-.48-.883-.797-1.115-1.603-1.173-2.681-1.516-4.084-2.06-.171-1.008 5.395.439 6.875 1.822zm-7.353 38.177c3.789 0 6.861 3.059 6.861 6.832S36.222 60 32.432 60s-6.861-3.059-6.861-6.832 3.072-6.832 6.861-6.832zm21.813-.389c3.867 1.75 0 10.947-3.661 10.281s-.881-12.337 3.661-10.281zM13.861 27.901c3.789 0 6.861 3.059 6.861 6.832s-3.072 6.832-6.861 6.832S7 38.506 7 34.733s3.072-6.832 6.861-6.832zM59.3 41.541c-2.121.529-2.407-8.107-1.17-8.426 2.016-.52 2.395 8.12 1.17 8.426zm-14.576-27.62c.031.148.035.281.004.4-.123.465-.498.714-.882.947l-.115.069c-.34.205-.68.445-.749.582-.119.232.1.917.587 1.661a9.06 9.06 0 0 0 .662.845c.764.761 1.797 1.458 2.711.766.252-.191.489-1.167.066-1.919-.093-.166-.2-.329-.309-.488l-.166-.236c-.543-.76-1.06-1.422-.474-1.915-.412-.158-.869-.415-1.334-.711zm-23.284-.634c.649 2.115-2.094 3.921-4.218 4.568s-5.519.869-6.169-1.246 2.647-4.058 4.771-4.705 4.967-.732 5.616 1.383z" fill="url(#A)"/></g></svg>