<?xml version="1.0" encoding="UTF-8"?>
<svg width="300px" height="200px" viewBox="0 0 300 200" version="1.1" xmlns="http://www.w3.org/2000/svg" xmlns:xlink="http://www.w3.org/1999/xlink">
    <title>github</title>
    <g id="github" stroke="none" stroke-width="1" fill="none" fill-rule="evenodd">
        <g transform="translate(106, 57)" fill="#000000" fill-rule="nonzero" id="Path">
            <path d="M43.5,0 C67.5337514,0 87,19.4998073 87,43.5749883 C86.9952221,62.2959153 75.0725519,78.9287724 57.3656271,84.9167585 C55.1906272,85.3525084 54.3750023,83.99079 54.3750023,82.8469466 C54.3750023,81.3762907 54.4293773,76.6919795 54.4293773,70.8638248 C54.4293773,66.7786696 53.0700024,64.1641703 51.4931275,62.8024519 C61.1718768,61.7130772 71.3400011,58.0092032 71.3400011,41.2873014 C71.3400011,36.4940527 69.6543762,32.6267725 66.8812514,29.5765233 C67.3162514,28.4871486 68.8387513,24.0207123 66.4462514,18.0291514 C66.4462514,18.0291514 62.8031267,16.8308392 54.4837523,22.4955877 C51.0037525,21.5151505 47.3062528,21.0249319 43.608753,21.0249319 C39.9112533,21.0249319 36.2137535,21.5151505 32.7337538,22.4955877 C24.4143793,16.885308 20.7712546,18.0291514 20.7712546,18.0291514 C18.3787548,24.0207123 19.9012547,28.4871486 20.3362546,29.5765233 C17.5631298,32.6267725 15.8775049,36.5485215 15.8775049,41.2873014 C15.8775049,57.9547345 25.9912542,61.7130772 35.6700036,62.8024519 C34.4193787,63.8918266 33.2775037,65.7982324 32.8968788,68.6306066 C30.3956289,69.7744501 24.1425044,71.6263871 20.2275046,65.0356701 C19.4118797,63.7284204 16.9650049,60.514765 13.5393801,60.5692338 C9.89625536,60.6237025 12.0712552,62.6390457 13.5937551,63.4560768 C15.442505,64.4909827 17.5631298,68.3582629 18.0525048,69.6110439 C18.9225047,72.0621369 21.7500045,76.7464482 32.6793788,74.731105 C32.6793788,78.3805103 32.7337538,81.8120406 32.7337538,82.8469466 C32.7337538,83.99079 31.9181288,85.2980397 29.743129,84.9167585 C11.9743611,78.992077 -0.00982513436,62.3345299 0,43.5749883 C0,19.4998073 19.4662547,0 43.5,0 L43.5,0 Z"></path>
        </g>
    </g>
</svg>