<?xml version="1.0" encoding="UTF-8"?>
<svg width="300px" height="200px" viewBox="0 0 300 200" version="1.1" xmlns="http://www.w3.org/2000/svg" xmlns:xlink="http://www.w3.org/1999/xlink">
    <title>svelte</title>
    <g id="svelte" stroke="none" stroke-width="1" fill="none" fill-rule="evenodd">
        <path d="M135.022,50.771 C149.334,41.712 169.241,45.921 179.241,60.287 C184.103,66.967 186.03,75.385 184.47,83.621 C183.828,87.464 182.36,91.124 180.158,94.419 C183.369,100.367 184.378,107.23 183.185,113.909 C181.809,121.87 177.038,128.916 170.158,133.216 L144.93,149.229 C130.618,158.288 110.802,154.079 100.711,139.713 C95.94,133.033 94.014,124.615 95.482,116.471 C96.124,112.628 97.592,108.968 99.794,105.673 C96.583,99.725 95.574,92.862 96.767,86.183 C98.143,78.222 102.914,71.176 109.794,66.876 L135.022,50.771 Z M168.874,66.876 C164.103,60.013 155.572,56.811 147.407,58.915 C145.572,59.464 143.829,60.196 142.27,61.203 L117.041,77.215 C112.913,79.777 109.977,84.078 109.151,88.836 C108.234,93.777 109.426,98.81 112.27,102.836 C117.041,109.699 125.572,112.901 133.737,110.797 C135.572,110.339 137.315,109.607 138.874,108.601 L148.507,102.47 C148.966,102.195 149.516,102.012 150.067,101.829 C152.544,101.188 155.113,102.104 156.581,104.208 C157.407,105.398 157.774,106.953 157.498,108.417 C157.222,109.881 156.397,111.071 155.113,111.894 L129.976,127.907 C129.517,128.182 128.967,128.365 128.416,128.548 C125.939,129.189 123.37,128.182 121.902,126.077 C121.168,124.979 120.801,123.606 120.893,122.325 L120.985,121.41 L120.068,121.135 C116.49,120.037 113.187,118.39 110.16,116.194 L108.876,115.279 L108.417,116.743 L107.867,119.122 C107.041,124.063 108.142,129.096 111.078,133.122 C115.849,139.985 124.38,143.187 132.545,141.083 C134.38,140.534 136.123,139.802 137.682,138.795 L162.911,122.782 C167.039,120.22 169.975,115.919 170.801,111.161 C171.627,106.22 170.526,101.187 167.59,97.161 C162.819,90.298 154.288,87.096 146.123,89.2 C144.288,89.749 142.545,90.481 140.986,91.488 L131.353,97.619 C130.894,97.894 130.344,98.077 129.793,98.26 C127.316,98.901 124.747,97.985 123.279,95.881 C122.453,94.691 122.086,93.136 122.362,91.672 C122.638,90.208 123.463,89.018 124.747,88.195 L149.884,72.182 C150.343,71.907 150.893,71.724 151.444,71.541 C153.921,70.9 156.49,71.816 157.958,73.92 C158.692,75.018 159.059,76.391 158.967,77.672 L158.875,78.587 L159.792,78.862 C163.37,79.96 166.673,81.607 169.7,83.803 L170.984,84.718 L171.443,83.254 C171.718,82.43 171.902,81.698 172.085,80.875 C172.911,75.934 171.81,70.901 168.874,66.875 L168.874,66.876 Z" id="Shape" fill="#FF3F00" fill-rule="nonzero"></path>
    </g>
</svg>