<?xml version="1.0" encoding="UTF-8"?>
<svg width="300px" height="200px" viewBox="0 0 300 200" version="1.1" xmlns="http://www.w3.org/2000/svg" xmlns:xlink="http://www.w3.org/1999/xlink">
    <title>tailwind</title>
    <g id="tailwind" stroke="none" stroke-width="1" fill="none" fill-rule="evenodd">
        <g id="tailwindcss" transform="translate(77, 56.0001)" fill="#12A5E9" fill-rule="nonzero">
            <path d="M71.899,0.0288812923 C46.038,0.847881292 38.352,19.2658813 36.59,29.2438813 C38.885,25.5458813 46.118,17.4308813 56.766,17.4308813 C69.176,17.4308813 78.624,31.2398813 84.389,35.5498813 C91.393,40.7868813 105.466,47.7008813 123.941,42.0948813 C138.673,37.6248813 145.505,22.0328813 147,14.6358813 C139.874,24.2938813 129.065,30.0958813 115.694,23.2568813 C106.486,18.5478813 99.601,-0.849118708 71.898,0.0288812923 L71.898,0.0288812923 L71.899,0.0288812923 Z M35.309,43.8508813 C9.448,44.6698813 1.761,63.0878813 0,73.0648813 C2.295,69.3668813 9.528,61.2518813 20.176,61.2518813 C32.586,61.2518813 42.034,75.0608813 47.799,79.3708813 C54.803,84.6078813 68.876,91.5218813 87.351,85.9158813 C102.083,81.4458813 108.915,65.8538813 110.41,58.4568813 C103.284,68.1148813 92.475,73.9168813 79.104,67.0778813 C69.896,62.3688813 63.011,42.9718813 35.308,43.8498813 L35.309,43.8508813 Z" id="Shape"></path>
        </g>
    </g>
</svg>