<?xml version="1.0" encoding="UTF-8"?>
<svg width="300px" height="200px" viewBox="0 0 300 200" version="1.1" xmlns="http://www.w3.org/2000/svg" xmlns:xlink="http://www.w3.org/1999/xlink">
    <title>typescript</title>
    <g id="typescript" stroke="none" stroke-width="1" fill="none" fill-rule="evenodd">
        <g id="Group" transform="translate(102, 52)">
            <path d="M92.4,0 C94.3884255,0 96,1.59458704 96,3.56202755 L96,91.4379725 C96,93.405413 94.3884255,95 92.4,95 L3.6,95 C1.61157447,95 0,93.405413 0,91.4379725 L0,3.56304907 C0,1.59458704 1.61157447,0 3.6,0 L92.4,0 Z" id="Path" fill="#2E79C7"></path>
            <path d="M74.226525,43 C71.9204461,43 69.7357939,43.2424383 67.6725685,43.727315 C65.6093431,44.2121917 63.7941163,44.9681492 62.2258592,45.9972334 C60.657602,47.0263176 59.4186377,48.3356892 58.5089663,49.928417 C57.5992948,51.5211448 57.14343,53.4248483 57.14343,55.6395276 C57.14343,58.4679748 57.9779816,60.8811057 59.6470846,62.8789203 C61.3161877,64.8767349 63.8496845,66.5676656 67.2475749,67.9527352 L70.9799035,69.5250041 C72.1324284,70.0395462 73.1285392,70.5735243 73.968236,71.1269384 C74.8079327,71.6803525 75.4706345,72.2838909 75.9553124,72.9365308 C76.4399903,73.5891707 76.6838728,74.330807 76.6838728,75.1614396 C76.6838728,75.7741845 76.5315749,76.3429428 76.2280081,76.8677144 C75.9244412,77.392486 75.4644603,77.8466743 74.8470362,78.2323251 C74.2296121,78.617976 73.4619482,78.9197452 72.5409573,79.1376328 C71.6199664,79.3555204 70.5435904,79.4639528 69.3097713,79.4639528 C67.2064133,79.4639528 65.1226071,79.1028526 63.0593817,78.3816753 C60.9961562,77.660498 59.0841997,76.5771976 57.3245411,75.1327971 L57.3245411,84.626764 C58.9020596,85.4175017 60.7687384,86.0118336 62.9225193,86.406691 C65.0763003,86.8015484 67.3473918,87 69.7347649,87 C72.0614246,87 74.2707737,86.7821124 76.3648704,86.3473601 C78.458967,85.9126078 80.2937456,85.1955223 81.8712641,84.1961035 C83.4487826,83.1966847 84.6980373,81.8924279 85.6190282,80.2802641 C86.5400191,78.6681003 87,76.6754005 87,74.3021645 C87,72.5815684 86.7365657,71.0737451 86.2107262,69.7776719 C85.6848867,68.4815986 84.9264842,67.3297608 83.9355185,66.3211355 C82.9445529,65.3125102 81.7560116,64.4072025 80.3698945,63.6062353 C78.9837775,62.8052682 77.4216946,62.0482877 75.6826168,61.3363169 L72.2538551,59.8377002 C71.2423087,59.3528236 70.3830602,58.8587404 69.6750806,58.3544277 C68.967101,57.8501151 68.4206807,57.316137 68.0368487,56.7524934 C67.6530168,56.1888499 67.4605863,55.5505312 67.4605863,54.8385604 C67.4605863,54.1859205 67.6324359,53.5977263 67.9761353,53.0729547 C68.3198347,52.5481831 68.8055417,52.0980866 69.4322271,51.7226652 C70.0589125,51.3472439 70.8276055,51.0557041 71.738306,50.847023 C72.6490065,50.6383419 73.6595239,50.5360472 74.7719163,50.5360472 C75.6297079,50.5393935 76.4863483,50.5988529 77.3362843,50.7140399 C78.2366944,50.8327017 79.1412206,51.0158092 80.0519211,51.2633622 C80.9626216,51.5109153 81.8475961,51.8218911 82.7068446,52.1983354 C83.5660931,52.5747797 84.3605121,53.009532 85.0890725,53.5036152 L85.0890725,44.6326227 C83.6123999,44.0781857 81.998865,43.6679841 80.2494968,43.400995 C78.5001286,43.134006 76.4924714,43 74.226525,43 L74.226525,43 Z M53.4255081,43 L19,43 L19,50.8020133 L31.2908552,50.8020133 L31.2908552,85.5423012 L41.0749686,85.5423012 L41.0749686,50.8020133 L53.4255081,50.8020133 L53.4255081,43 Z" id="Combined-Shape" fill="#FFFFFF"></path>
        </g>
    </g>
</svg>