<?xml version="1.0" encoding="UTF-8"?>
<svg width="300px" height="200px" viewBox="0 0 300 200" version="1.1" xmlns="http://www.w3.org/2000/svg" xmlns:xlink="http://www.w3.org/1999/xlink">
    <title>vite</title>
    <defs>
        <linearGradient x1="-0.828097821%" y1="7.76419639%" x2="57.6359644%" y2="78.3354029%" id="linearGradient-1">
            <stop stop-color="#41D1FF" offset="0%"></stop>
            <stop stop-color="#BD34FE" offset="100%"></stop>
        </linearGradient>
        <linearGradient x1="43.3982403%" y1="2.24179788%" x2="50.3148245%" y2="89.0299051%" id="linearGradient-2">
            <stop stop-color="#FFEA83" offset="0%"></stop>
            <stop stop-color="#FFDD35" offset="8.33333%"></stop>
            <stop stop-color="#FFA800" offset="100%"></stop>
        </linearGradient>
    </defs>
    <g id="vite" stroke="none" stroke-width="1" fill="none" fill-rule="evenodd">
        <g transform="translate(100, 50)" fill-rule="nonzero" id="Path">
            <path d="M99.6691033,14.8068556 L52.694088,98.6948542 C51.7241966,100.426817 49.2324513,100.437016 48.2480076,98.7134665 L0.341574902,14.8149379 C-0.730904437,12.9367026 0.877325669,10.6616431 3.00855932,11.0420733 L50.0338435,19.4364211 C50.3338231,19.4899633 50.6409511,19.4894534 50.9409307,19.4348658 L96.982818,11.0541075 C99.1069288,10.6674817 100.722734,12.9249234 99.6691033,14.8068556 Z" fill="url(#linearGradient-1)"></path>
            <path d="M72.0528678,0.0247697922 L37.1796362,6.86953995 C36.6064576,6.98203402 36.18208,7.46859331 36.1475049,8.05251063 L34.002311,44.3439947 C33.9518569,45.1987957 34.7355596,45.8622157 35.5684357,45.6698085 L45.2776409,43.4253145 C46.1860701,43.2154624 47.006909,44.0169025 46.8202033,44.9319911 L43.9356141,59.0811024 C43.7414812,60.0333897 44.6340315,60.8476569 45.5624374,60.5652031 L51.5592994,58.7401568 C52.4889859,58.4574465 53.3823045,59.2740226 53.1856105,60.2270796 L48.6014621,82.4521618 C48.3146167,83.8423678 50.1606719,84.6004521 50.9305445,83.4085537 L51.4448173,82.6125011 L79.8614659,25.8067169 C80.337322,24.855584 79.5167392,23.7710489 78.4738512,23.9726403 L68.4798495,25.9047163 C67.5406869,26.0860921 66.7416175,25.2099981 67.0066934,24.289599 L73.5296094,1.63906351 C73.7949415,0.717112414 72.9930548,-0.159740745 72.0528678,0.0247697922 Z" fill="url(#linearGradient-2)"></path>
        </g>
    </g>
</svg>